<svg width="64" height="64" viewBox="0 0 64 64" fill="none" xmlns="http://www.w3.org/2000/svg">
<path d="M64 64H0V0H64V64ZM19.9375 18C18.875 18 18 18.9375 18 20.0625V44C18 45.125 18.875 46 19.9375 46H44C45.0625 46 46 45.125 46 44V20.0625C46 18.9375 45.0625 18 44 18H19.9375ZM26.4375 28.6875V42H22.3125V28.6875H26.4375ZM37 28.3125C41.1875 28.3125 42 31.125 42 34.6875V42H37.8125V35.5C37.8125 34 37.8125 32 35.6875 32C33.5 32 33.1875 33.6875 33.1875 35.4375V42H29.0625V28.6875H33V30.5H33.0625C33.625 29.4375 35 28.3125 37 28.3125ZM24.375 22C25.6875 22 26.75 23.125 26.75 24.4375C26.75 25.75 25.6875 26.8125 24.375 26.8125C23 26.8125 21.9375 25.75 21.9375 24.4375C21.9375 23.125 23 22 24.375 22Z" fill="#22AD6C"/>
</svg>
