<svg width="480" height="128" viewBox="0 0 480 128" fill="none" xmlns="http://www.w3.org/2000/svg">
<path d="M480 128H0V0H480V128ZM244.4 71.3252C236.33 71.3252 228.425 74.8204 228.425 82.9004C228.425 92.345 235.62 94.5299 243.965 95.2949C248.165 95.6249 250.29 96.88 250.29 98.79C250.29 100.865 247.89 102.175 244.345 102.175C241.07 102.175 236.93 101.465 233.165 97.8047L227.22 104.63V104.635C232.56 110.26 237.36 111.35 244.285 111.35C252.845 111.35 260.97 107.8 260.97 98.9551C260.97 90.1101 253.12 87.1052 245.54 86.2852C241.78 85.8502 239.215 85.52 239.215 82.9004C239.215 80.8804 241.776 80.0049 244.396 80.0049C247.725 80.005 250.72 80.7148 253.285 82.6797L258.63 75.8555C254.54 72.5255 250.07 71.3252 244.4 71.3252ZM17.5596 110.42H28.3555V96.0049H42.0947V110.42H52.7852V72.1953H42.0947V86.7754H28.3555V72.1953H17.5596V110.42ZM66.2451 110.42H77.6953L80.2051 104.195H97.2754L99.7305 110.42H111.29L94.2754 72.1953H83.3652L66.2451 110.42ZM124.71 110.42H135.615V98.1348L135.45 89.835L151.375 110.42H160.535V72.1953H149.685V85.3555L149.96 93.165L133.875 72.1953H124.71V110.42ZM178.41 110.42H194.771C208.46 110.42 214.675 101.52 214.675 91.0352C214.675 80.5503 208.24 72.1955 194.771 72.1953H178.41V110.42ZM276.21 110.42H287.005V96.0049H300.745V110.42H311.435V72.1953H300.745V86.7754H287.005V72.1953H276.21V110.42ZM324.9 110.42H336.35L338.86 104.195H355.925L358.38 110.42H369.94L352.925 72.1953H342.021L324.9 110.42ZM383.37 110.42H394.165V97.6953L405.07 110.42H418.375V109.765L401.58 90.9248L417.12 72.7949V72.1953H404.195L394.16 84.8096V72.1953H383.37V110.42ZM431.91 72.1953V110.42H462.445V101.3H442.54V95.5654H460.59V86.7754H442.54V81.2051H461.68V72.1953H431.91ZM194.771 81.1504C201.37 81.1506 203.985 85.685 203.985 90.9248C203.985 96.1647 201.585 101.3 194.771 101.3H189.1V81.1504H194.771ZM93.6201 95.1797H83.8047L88.7646 82.8945L93.6201 95.1797ZM352.271 95.1797H342.455L347.415 82.8945L352.271 95.1797ZM32.1201 16.7148C24.0501 16.7148 16.1445 20.21 16.1445 28.29C16.1445 37.7348 23.3398 39.9195 31.6846 40.6846C35.8843 41.0146 38.0095 42.2699 38.0098 44.1797C38.0098 46.2546 35.6102 47.5653 32.0654 47.5654C28.7904 47.5654 24.6498 46.8553 20.8848 43.1953L14.9404 50.0195L14.9346 50.0254C20.2795 55.6504 25.0799 56.7402 32.0049 56.7402C40.5649 56.7402 48.6904 53.1897 48.6904 44.3447C48.6903 35.4999 40.8397 32.4948 33.2598 31.6748C29.4999 31.2398 26.9346 30.9099 26.9346 28.29C26.9346 26.27 29.5002 25.3945 32.1152 25.3945C35.4451 25.3946 38.4399 26.1054 41.0049 28.0703L46.3496 21.2451C42.2647 17.9152 37.79 16.7149 32.1201 16.7148ZM129.285 16.71C114.945 16.71 108.455 27.0848 108.455 36.9697L108.445 36.9746C108.445 47.2946 114.39 56.7402 129.275 56.7402C135.165 56.7402 140.29 55.1048 144.6 50.79L138.275 43.6904C135.55 46.4753 131.95 47.62 129.28 47.6201C121.75 47.6201 119.135 42.0503 119.135 37.0254C119.135 32.0004 121.865 26.0498 129.28 26.0498C131.9 26.0499 134.625 26.7053 137.46 29.3252L144.115 22.8252C139.7 18.6202 134.845 16.71 129.285 16.71ZM63.9346 55.8096H94.4697V46.6904H74.5654V40.9551H92.6152V32.165H74.5654V26.5947H93.7051V17.585H63.9346V55.8096ZM208.665 55.8096H239.2V46.6904H219.295V40.9551H237.345V32.165H219.295V26.5947H238.435V17.585H208.665V55.8096ZM252.155 26.4854H263.275V55.8096H273.965V26.4854H285.2V17.585H252.155V26.4854ZM158.63 55.8047H169.425V43.4648H173.185L182.075 55.8047H193.965V55.1504L183.985 42.375C190.475 39.5351 192.11 35.3852 192.11 30.6904C192.11 23.8654 187.04 17.585 177.225 17.585H158.63V55.8047ZM300.64 40.9551H462.445V32.165H300.64V40.9551ZM177.225 26.2148C180.115 26.2148 181.48 28.5102 181.48 30.9102C181.48 33.3101 180.225 35.4951 177.335 35.4951L177.33 35.5H169.425V26.2148H177.225Z" fill="#D9D9D9"/>
</svg>
