<svg width="480" height="128" viewBox="0 0 480 128" fill="none" xmlns="http://www.w3.org/2000/svg">
<rect width="480" height="128" fill="#143243"/>
<path d="M300.64 32.165H462.445V40.955H381.543H300.64V32.165Z" fill="#22AD6C"/>
<path d="M14.94 50.02L20.885 43.195C24.65 46.855 28.79 47.565 32.065 47.565C35.61 47.565 38.01 46.255 38.01 44.18C38.01 42.27 35.885 41.015 31.685 40.685C23.34 39.92 16.145 37.735 16.145 28.29C16.145 20.21 24.05 16.715 32.12 16.715C37.79 16.715 42.265 17.915 46.35 21.245L41.005 28.07C38.44 26.105 35.445 25.395 32.115 25.395C29.5 25.395 26.935 26.27 26.935 28.29C26.935 30.91 29.5 31.24 33.26 31.675C40.84 32.495 48.69 35.5 48.69 44.345C48.69 53.19 40.565 56.74 32.005 56.74C25.08 56.74 20.28 55.65 14.935 50.025L14.94 50.02Z" fill="#F4F9EB"/>
<path d="M63.93 17.585H93.705V26.595H74.565V32.165H92.615V40.955H74.565V46.69H94.47V55.81H63.935V17.585H63.93Z" fill="#F4F9EB"/>
<path d="M108.455 36.97C108.455 27.085 114.945 16.71 129.285 16.71C134.845 16.71 139.7 18.62 144.115 22.825L137.46 29.325C134.625 26.705 131.9 26.05 129.28 26.05C121.865 26.05 119.135 32 119.135 37.025C119.135 42.05 121.75 47.62 129.28 47.62C131.95 47.62 135.55 46.475 138.275 43.69L144.6 50.79C140.29 55.105 135.165 56.74 129.275 56.74C114.39 56.74 108.445 47.295 108.445 36.975L108.455 36.97Z" fill="#F4F9EB"/>
<path d="M158.63 17.585H177.225C187.04 17.585 192.11 23.865 192.11 30.69C192.11 35.385 190.475 39.535 183.985 42.375L193.965 55.15V55.805H182.075L173.185 43.465H169.425V55.805H158.63V17.585ZM177.335 35.495C180.225 35.495 181.48 33.31 181.48 30.91C181.48 28.51 180.115 26.215 177.225 26.215H169.425V35.5H177.33L177.335 35.495Z" fill="#F4F9EB"/>
<path d="M208.66 17.585H238.435V26.595H219.295V32.165H237.345V40.955H219.295V46.69H239.2V55.81H208.665V17.585H208.66Z" fill="#F4F9EB"/>
<path d="M263.28 26.485H252.155V17.585H285.2V26.485H273.965V55.81H263.275V26.485H263.28Z" fill="#F4F9EB"/>
<path d="M17.56 72.195H28.355V86.775H42.095V72.195H52.785V110.42H42.095V96.005H28.355V110.42H17.56V72.195Z" fill="#F4F9EB"/>
<path d="M83.37 72.195H94.275L111.29 110.42H99.73L97.275 104.195H80.205L77.695 110.42H66.245L83.365 72.195H83.37ZM93.62 95.18L88.765 82.895L83.805 95.18H93.62Z" fill="#F4F9EB"/>
<path d="M124.715 72.195H133.875L149.96 93.165L149.685 85.355V72.195H160.535V110.42H151.375L135.45 89.835L135.615 98.135V110.42H124.71V72.195H124.715Z" fill="#F4F9EB"/>
<path d="M178.41 72.195H194.77C208.24 72.195 214.675 80.55 214.675 91.035C214.675 101.52 208.46 110.42 194.77 110.42H178.41V72.195ZM194.77 101.3C201.585 101.3 203.985 96.165 203.985 90.925C203.985 85.685 201.37 81.15 194.77 81.15H189.1V101.3H194.77Z" fill="#F4F9EB"/>
<path d="M227.22 104.63L233.165 97.805C236.93 101.465 241.07 102.175 244.345 102.175C247.89 102.175 250.29 100.865 250.29 98.79C250.29 96.88 248.165 95.625 243.965 95.295C235.62 94.53 228.425 92.345 228.425 82.9C228.425 74.82 236.33 71.325 244.4 71.325C250.07 71.325 254.54 72.525 258.63 75.855L253.285 82.68C250.72 80.715 247.725 80.005 244.395 80.005C241.775 80.005 239.215 80.88 239.215 82.9C239.215 85.52 241.78 85.85 245.54 86.285C253.12 87.105 260.97 90.11 260.97 98.955C260.97 107.8 252.845 111.35 244.285 111.35C237.36 111.35 232.56 110.26 227.22 104.635V104.63Z" fill="#F4F9EB"/>
<path d="M276.21 72.195H287.005V86.775H300.745V72.195H311.435V110.42H300.745V96.005H287.005V110.42H276.21V72.195Z" fill="#F4F9EB"/>
<path d="M342.02 72.195H352.925L369.94 110.42H358.38L355.925 104.195H338.86L336.35 110.42H324.9L342.02 72.195ZM352.27 95.18L347.415 82.895L342.455 95.18H352.27Z" fill="#F4F9EB"/>
<path d="M383.365 72.195H394.16V84.81L404.195 72.195H417.12V72.795L401.58 90.925L418.375 109.765V110.42H405.07L394.165 97.695V110.42H383.37V72.195H383.365Z" fill="#F4F9EB"/>
<path d="M431.905 72.195H461.68V81.205H442.54V86.775H460.59V95.565H442.54V101.3H462.445V110.42H431.91V72.195H431.905Z" fill="#F4F9EB"/>
</svg>
