<?xml version="1.0" encoding="UTF-8"?>
<svg id="Layer_1" data-name="Layer 1" xmlns="http://www.w3.org/2000/svg" viewBox="0 0 7000 3500">
  <defs>
    <style>
      .cls-1 {
        fill: #fff;
      }
    </style>
  </defs>
  <rect class="cls-1" width="7000" height="3500"/>
  <path d="M6750.14,1468.7c-47.28-30.31-106.25-27.07-159.79-22.13-125.97,14.11-247.81,50.96-369.61,84.29-236.89,69.68-471.91,145.57-708.96,214.76-13.89,3.51-27.84-1.7-41.57-3.4-207.34-37.01-415.9-73.14-626.92-79.29-23.23-65.45-52.17-128.77-86.48-189.17-36.96-62.98-78.3-126.35-137.72-170.39-4.72-49.64-20.21-99.99-52.77-138.6-16.14-18.83-40.69-35.36-66.61-30.15-23.01,10.76-25.81,42.34-15.59,63.09,21.63,52.28,75.39,78.08,115.31,113.94,5.66,22.13-.6,46.34-4.56,68.58-25.2,108.23-111.85,194.99-213.49,235.18-76.93,32.56-163.09,33.88-244.41,20.48-57.16-9.61-114.93-23.01-165.89-51.62-81.1-44.15-155.34-99.61-227.28-157.16-9.94-7.85-18.67-17.02-26.74-26.63,52.06-43.93,75.83-117.78,59.41-183.84-6.15-24.11-19.16-48.82-42.61-59.91-19.49-10.16-45.19-8.24-61.12,7.63-34.15,32.73-41.02,84.84-31.74,129.37,6.48,38.66,28.06,72.26,49.8,104.06-13.45,7.74-26.69,17.08-42.12,20.21-72.32-40.36-147.38-84.18-231.89-90.16-24.98-.16-57.77,2.36-70.29,27.68-18.23-.99-34.43,11.48-44.09,25.97-14.28,25.04-18.61,54.14-27.73,81.16-22.02,76.22-67.65,146.01-131.46,193.67-56.94,42.5-126.3,72.92-198.39,71.22-35.25-1.48-77.15-16.25-88.68-53.15,87.58-29.43,174.62-77.15,227.11-155.62,31.57-45.03,37.28-107.46,10.98-156.28-15.98-31.3-45.3-52.77-76.99-66.28,23.45-46.56,45.47-93.9,72.15-138.71,15.54-24.05,30.2-50.24,54.75-66.33,22.07-15.38,49.42-19.05,75.23-23.83,84.45-14.44,169.02-31.96,248.8-63.92,43.11-16.36,83.19-41.9,129.32-49.31,62.32-9.12,125.75-.38,186.7,13.62,134.53,29.49,265.17,75.17,400.96,99.33,119.93,23.39,245.18,19.99,363.18-12.52,205.97-55.24,396.79-152.76,589.36-242.1,141.94-69.68,283.89-139.36,428.09-204.27,9.66-1.43,17.02-16.25,4.28-19.16-148.86,62.65-292.51,136.78-438.19,206.47-180.11,84.95-359.56,174.12-550.81,231.78-102.85,31.24-211.57,46.62-318.81,33.66-124.15-14.88-244.52-50.35-364.55-83.9-90.55-23.06-182.8-49.2-277.19-43.16-33.93,1.59-66.72,12.14-97.25,26.58-94.78,45.96-197.84,71.88-301.41,88.9-31.13,5.66-64.14,10.05-90.44,29.1-28.28,20.15-46.24,50.74-63.48,80.06-24.71,43.65-46.45,88.9-67.76,134.26-83.19-11.09-166.76-20.81-248.53-40.14-235.73-53.48-461.97-141.23-683.92-235.62-168.91-76-336.17-155.78-499.47-243.15-111.74-59.69-223.43-119.82-331.88-185.38-2.58,2.97-7.69,8.84-10.21,11.81,43.11,31.96,91.92,55.41,138.16,82.48,174.29,97.74,351.27,190.76,532.47,275.1,128.16,61.56,259.13,117.02,391.68,168.3,226.4,86.38,460.32,160.01,702.75,182.41-35.2,82.7-78.03,161.88-117.56,242.54-16.53,34.76-33.11,70.67-36.41,109.55-143.37,39.37-293.66,43.22-441.38,37.28-147.27-4.72-293.94-19.71-440.61-33.33-372.9-34.81-743.88-98.35-1119.2-101.26-97.41-.38-194.77,4.12-291.91,10.71-89.56-22.46-175-63.59-267.97-71.66-27.07-1.65-59.3-3.29-79.62,18.12-12.63,12.85-10.65,34.43,1.48,46.89,21.96,25.15,57.22,30.53,88.79,32.56,73.09,4.12,146.23-1.65,219.26-4.78,14.44,0,29.54-4.67,43.54.77,137.5,49.42,278.07,89.34,417.54,132.66,145.29,42.78,290.48,86.16,436.6,126.19,225.46,62.93,450.66,126.95,677.16,185.93,120.64,32.62,242.54,62.1,359.72,106.14-24,17.41-40.96,43.05-48.65,71.6-15.76,58.32-7.8,122.95,22.07,175.55,18.89,34.04,53.37,59.14,91.98,65.29,54.75,9.23,112.18-5.22,158.42-35.31-24.44,44.81-39.15,98.57-24.16,148.92,11.7,45.3,50.96,79.57,95.22,91.81,62.05,18.23,128.55,7.41,187.63-15.98-13.23,46.34-13.45,101.15,17.46,140.74,29.93,39.21,84.84,49.25,130.85,39.15,48.6-11.09,94.28-34.54,132.5-66.55-12.41,40.41-8.4,89.67,23.23,120.42,35.58,33.33,90.16,32.73,134.26,19.55,74.07-24.87,136.01-79.51,176.21-145.9,54.58,67.32,127.56,122.73,211.57,146.89,61.28,17.08,134.2,9.77,181.65-36.13,31.96-26.63,48.32-68.09,47.06-109.27,37.67,16.36,77.86,29.65,119.38,29.98,34.76.22,68.97-15.65,90.99-42.56,38.16-42.89,49.97-104.88,36.9-160.01,70.01,17.19,148.53,13.89,210.58-25.92,42.78-26.36,62.98-81.49,51.95-129.86-8.18-36.46-28.39-68.86-53.43-96.09,42.83,20.21,88.41,35.42,135.41,42.17,39.98,4.83,84.07,4.23,118.72-19.05,42.72-25.42,61.83-79.68,53.54-127.39-8.9-50.13-38.71-93.46-71.55-131.18-48.21-52.6-100.87-100.87-155.45-146.83-76.27-65.23-155.07-127.83-238.97-182.96-69.46-47.22-142.99-87.97-215.91-129.43,59.14,13.67,119.38,25.04,180.38,23.06,93.24-.77,185.16-35.91,256.71-95.22,71.05-58.86,119.6-146.89,122.4-240.02,37.83,31.52,68.14,70.78,94.72,112.02,44.37,70.4,81.87,145.29,109.44,223.87-96.64.55-194.71-.88-289.16,22.68-36.74,9.06-73.64,21.91-103.84,45.25-22.62,17.24-33.44,49.09-24.22,76.22,8.4,25.75,27.13,46.13,45.8,65.01,48.93,47.39,103.29,89.78,163.85,121.3,39.7,19.66,84.01,37.61,129.21,31.63,43.82-10.43,77.97-44.75,101.86-81.49,33.93-54.2,32.45-121.35,22.02-182.19,28.11,50.19,73.2,98.73,134.15,103.01,80.55,5.71,160.56-12.14,238.81-29.21,86.16-19.49,171.6-42.17,256.43-66.83,8.68-2.8,17.74.88,26.58,1.98,132.12,24.33,263.68,51.67,396.24,73.86,154.08,22.95,310.14,41.24,466.14,31.52,110.32-7.3,223.87-31.57,315.19-97.14,57.82-41.18,105.92-104.72,108.78-177.91,3.3-50.13-17.24-104.39-61.5-131.24ZM4501.14,1191.62c-5.05-12.08-10.21-33,5.49-39.37,13.12-3.29,26.19,5.11,35.69,13.67,33.11,31.96,49.58,77.31,57.66,121.74-36.52-27.57-77.53-54.03-98.84-96.04ZM258.28,1579.29c-20.26-4.45-45.52-12.03-52.99-33.72-.06-16.09,18.23-22.95,31.63-25.09,56.72-4.94,112.29,11.92,166.05,28.06,29.05,9.94,59.03,17.46,87.31,29.71-77.26,2.03-155.01,11.97-232,1.04ZM3654.47,1254.27c1.04-30.2,10.82-64.03,37.56-81.27,14.5-9.44,33.5-3.35,45.19,7.8,18.56,17.46,24.93,43.76,26.8,68.36,2.75,51.4-18.56,105.04-59.8,136.84-27.51-38.44-50.52-83.3-49.75-131.73ZM3702.02,1411.7c63.31,62.16,139.36,109.05,210.86,161.05-51.4-25.31-103.34-49.91-151.61-80.88-32.45-19.82-63.86-41.24-95.76-61.83,12.3-5.82,24.44-12.03,36.52-18.34ZM3475.24,1356.35c54.14,16.58,105.1,42.39,153.59,71.38-66.33,18.23-139.25,18.01-203.72-7.08-26.19-12.46-56.94-29.76-62.87-60.73,33.66-23.23,76.55-14.22,113.01-3.57ZM2905.21,1527.34c36.74-70.4,69.63-142.71,105.65-213.44,36.57,13.34,67.21,43.6,77.04,81.82,13.73,42.39.11,88.96-26.58,123.28-50.79,66.72-126.62,110.81-205.75,135.58,6.2-45.69,29.82-86.38,49.64-127.23ZM2652.62,2411.52c-43.71,23.61-94.89,40.47-144.91,30.26-31.74-5.93-60.4-25.97-76.66-53.81-26.03-43.98-35.14-97.63-26.14-147.82,5.99-33.77,24.77-66.99,55.68-83.57,44.97,23.94,85.77,55.13,121.57,91.37,39.15,38.22,76.93,82.64,130.96,99.55-8.4,29.98-35.25,48.71-60.51,64.03ZM2478.61,2146.3c59.36-8.73,120.58,8.02,170.33,40.69,28.94,20.26,55.46,47.28,65.84,81.98,6.31,19.55,2.97,40.3.22,60.18-35.97-10.93-63.75-38.05-89.72-63.97-43.82-45.47-91.1-88.24-146.67-118.88ZM2762.72,2652.97c-43.21-6.81-87.09-32.73-101.8-75.94-20.21-54.31-.77-113.94,28.28-161.11,11.2-22.9,34.32-36.35,45.96-58.86,49.09,8.57,104.39,7.91,145.02-24.98,40.36-27.78,61.83-77.31,107.85-97.41,25.86-13.73,60.13-11.26,82.53,8.02,32.95,27.51,47.5,75.67,33.99,116.63-13.67,42.23-43.65,76.11-70.34,110.59-40.14,47.17-78.08,97.25-102.57,154.57-52.49,23.67-111.14,39.98-168.91,28.5ZM2761.4,2344.2c34.92-35.09,74.29-66.61,118.33-89.5,17.46-7.36,38.22-15.87,56.78-7.8-24.82,32.51-52.55,64.96-88.9,84.84-26.52,13.45-57.22,13.56-86.21,12.46ZM3057.09,2486.92c21.2-14.99,45.74-29.98,72.65-28.61-6.75,22.4-23.83,39.37-38.71,56.56-38.99,41.07-86.59,73.2-136.34,99.83,25.86-48.43,61.45-91.48,102.41-127.78ZM3077.41,2808.91c-26.96,7.52-56.39,8.29-82.92-1.37-30.04-11.31-52.28-39.21-58.86-70.34-8.51-32.84.6-66.44,8.79-98.35,34.92-14.33,66.28-35.75,96.97-57.44,40.63-30.48,79.79-65.29,104.22-110.48,7.69-17.57,28.28-22.13,45.52-23.34,48.27-3.35,100.32,16.58,128.38,57.16,15.87,22.46,3.62,50.3-6.86,72.15-27.35,53.32-62.21,102.41-95.93,151.77-39.43,36.79-87.09,65.78-139.31,80.23ZM3352.02,2885.79c-36.63,10.49-81.87,11.2-111.36-16.31-31.13-30.37-32.73-81.6-12.9-118.55,16.14-27.02,42.34-45.58,64.25-67.6,31.68-28.99,60.35-61.61,95.05-87.2,15.87-11.86,38.44-18.78,56.45-7.25,31.74,19.05,41.51,56.78,52.77,89.5,7.58,20.87,17.74,40.74,29.65,59.47-35.97,69.13-99.11,124.92-173.9,147.93ZM3535.26,2717.05c-12.14-16.8-19.05-36.63-25.7-56.01-5.49-18.94-8.35-42.39,6.53-57.88,34.54,25.75,35.03,77.2,19.16,113.89ZM4308.96,1811.62c97.19,67.87,187.08,145.46,275.38,224.37,52.77,48.65,107.3,100.65,133.16,169.29,14.77,37.72,10.93,83.25-14.77,115.31-22.02,28.44-59.52,39.32-94.17,39.37-66.66.11-130.47-24.44-189.06-54.36-20.32-9.88-35.64-26.8-52.38-41.4-96.04-89.29-195.98-174.34-298.66-255.94-14.94-11.37-29.87-23.67-47.72-30.04-15.54-4.94-30.86,12.85-24.33,27.73,13.56,44.26,47.88,77.92,82.2,107.24,74.51,61.94,159.79,108.94,243.2,157.54,30.53,18.18,65.4,32.07,88.13,60.62,26.25,30.53,53.15,63.31,61.12,103.95,9.44,42.23-11.09,88.63-48.16,110.81-60.13,37.07-136.4,38-202.57,18.78-28.61-69.96-84.84-123.11-139.97-172.64-44.09-37.34-90.55-72.1-140.46-101.31-25.75-15.27-53.1-31.46-83.79-32.84-19-1.26-40.41,13.18-38.27,33.93,1.81,30.86,21.8,56.94,41.57,79.24,60.57,64.25,136.56,111.41,213.16,154.14,41.73,23.89,86.87,40.74,132.45,55.68,23.23,68.03-5.71,160.67-78.63,184.61-51.12,12.74-103.84-6.92-149.58-28.94-20.21-70.18-79.24-119.05-136.12-160.18-46.07-30.91-94.39-62.43-149.69-73.2-18.23-4.28-48.49,6.42-40.52,29.93,10.87,26.47,35.36,43.71,56.17,62.05,75.01,59.08,155.84,111.85,243.64,150.07,2.69,1.98,8.07,5.93,10.76,7.91,3.29,36.79-13.23,72.98-39.65,98.07-43,42.12-109.22,51.67-165.56,34.92-83.74-24.22-156.22-80.39-209.38-148.53,16.14-33.44,22.95-73.14,9.77-108.67-6.42-16.8-16.75-35.09-34.81-41.02-17.02-4.56-25.81,14.28-30.48,27.07-14.06-23.17-34.7-45.47-62.87-49.64-28.33-3.29-52.39,15.38-72.26,33.11-29.87,27.57-60.13,54.8-88.19,84.23,27.18-42.89,59.8-83.96,74.57-133.32,9.66-30.53-6.75-62.1-30.31-81.05-45.85-38.88-117.02-53.76-171.21-24.27-27.24-11.15-54.69,5.71-78.96,16.86,24.16-29.49,48.82-60.24,59.74-97.47,17.68-56.06-8.57-125.8-64.08-149.36-36.46-14.72-76.71-.27-106.91,21.58-17.52-17.46-43.98-8.79-64.69-2.75-54.69,21.09-96.81,63.75-141.23,100.32-3.4,1.26-10.21,3.79-13.62,5.05,4.78-28.66,9.01-59.58-3.35-87.03-21.91-52.93-72.26-87.8-124.32-107.3-45.52-16.75-97.3-25.81-144.03-8.79-106.42-42.67-218.33-68.8-328.37-100.05-227.44-58.32-453.57-121.68-679.41-185.82-164.68-44.26-327.98-93.51-491.62-141.4-125.03-38.6-250.78-75.23-374.44-118.06,327.6-28,655.69,11.15,980.82,49.09,148.2,17.35,296.35,35.2,444.94,48.93,164.29,15.05,328.86,29.27,493.98,29.54,111.69-1.15,224.48-8.95,332.6-38.77,13.23,38.27,51.45,61.01,90.38,64.8,78.36,8.02,155.95-22.9,218.71-67.98,72.81-51.4,124.26-129.86,146.94-215.69,10.87-31.57,12.74-73.75,47.94-88.85,21.25,27.35,44.37,55.46,78.41,66.99,72.54,25.75,154.46,27.18,227.55,2.53,42.45,24.93,81.87,54.64,125.14,78.25,83.74,50.63,176.7,82.7,263.46,127.34,93.9,49.97,186.09,103.51,272.69,165.39ZM4332.62,2257.44c-91.26-56.45-188.67-105.76-267.47-179.78-22.68-23.34-47.55-49.47-51.78-83.14,33.88,13.67,58.86,42.01,88.02,63.2,78.08,65.29,157.92,128.99,231.23,199.71ZM4200.29,2559.95c-90.44-27.73-172.7-77.37-249.19-132.17-39.1-29.82-78.14-61.88-104.82-103.73-6.64-12.52-18.01-29.93-7.36-43.16,16.09-10.65,36.79-3.73,52.77,3.9,76.11,38.66,144.69,90.77,207.67,148.1,39.32,37.17,76.55,78.36,100.93,127.06ZM3955.88,2728.74c-89.12-40.74-172.48-93.84-248.14-155.95-15.43-14.99-36.35-28.11-40.85-50.63,24.93-5.55,49.04,5.6,71.44,15.21,41.95,19.55,80.99,44.92,117.84,72.81,40.14,32.51,80.99,68.97,99.72,118.55ZM4781.96,1988.16c-22.84,17.35-52.6,25.04-80.66,17.13-78.08-18.5-145.46-65.89-205.26-117.67-27.84-25.42-59.14-50.63-72.54-87.2-7.3-18.56.22-39.76,14.83-52.49,26.14-23.56,60.68-34.48,93.95-43.98,96.48-26.3,197.51-24.33,296.68-24.11,18.18,48.05,27.62,99.39,29.54,150.62,2.53,60.95-26.69,122.4-76.55,157.7ZM5286.87,1805.41c-89.4,20.87-180,44.59-272.58,40.96-44.92-1.26-84.84-28.33-110.43-63.97-22.13-31.63-43.05-64.74-55.19-101.64,208.28,6.48,414.08,43.05,618.79,79.18-60.29,14.66-119.87,32.45-180.6,45.47ZM6792.53,1617.34c-7.91,55.13-44.53,101.31-86.48,135.63-68.09,54.69-153.97,82.59-239.41,95.27-118.77,18.07-239.58,12.03-358.68.71-189.44-17.68-375.65-57.99-562.18-93.79,121.08-38.33,243.09-73.75,364.39-111.52,134.48-42.12,269.17-83.68,405.13-120.86,106.86-27.78,214.37-58.15,325.4-61.99,39.21-1.1,81.1,6.04,111.8,32.34,35.8,29.43,46.73,80.01,40.03,124.21Z"/>
</svg>