<?xml version="1.0" encoding="UTF-8"?>
<svg id="Layer_1" data-name="Layer 1" xmlns="http://www.w3.org/2000/svg" viewBox="0 0 960 256">
  <defs>
    <style>
      .cls-1 {
        fill: #fff;
      }
    </style>
  </defs>
  <path d="M960,0v256s-960,0-960,0V0s960,0,960,0Z"/>
  <path class="cls-1" d="M29.88,100.04l11.89-13.65c7.53,7.32,15.81,8.74,22.36,8.74,7.09,0,11.89-2.62,11.89-6.77,0-3.82-4.25-6.33-12.65-6.99-16.69-1.53-31.08-5.9-31.08-24.79,0-16.16,15.81-23.15,31.95-23.15,11.34,0,20.29,2.4,28.46,9.06l-10.69,13.65c-5.13-3.93-11.12-5.35-17.78-5.35-5.23,0-10.36,1.75-10.36,5.79,0,5.24,5.13,5.9,12.65,6.77,15.16,1.64,30.86,7.65,30.86,25.34s-16.25,24.79-33.37,24.79c-13.85,0-23.45-2.18-34.14-13.43Z"/>
  <path class="cls-1" d="M127.86,35.17h59.55v18.02h-38.28v11.14h36.1v17.58h-36.1v11.47h39.81v18.24h-61.07V35.17Z"/>
  <path class="cls-1" d="M216.91,73.94c0-19.77,12.98-40.52,41.66-40.52,11.12,0,20.83,3.82,29.66,12.23l-13.31,13c-5.67-5.24-11.12-6.55-16.36-6.55-14.83,0-20.29,11.9-20.29,21.95s5.23,21.19,20.29,21.19c5.34,0,12.54-2.29,17.99-7.86l12.65,14.2c-8.62,8.63-18.87,11.9-30.65,11.9-29.77,0-41.66-18.89-41.66-39.53Z"/>
  <path class="cls-1" d="M317.26,35.17h37.19c19.63,0,29.77,12.56,29.77,26.21,0,9.39-3.27,17.69-16.25,23.37l19.96,25.55v1.31h-23.78l-17.78-24.68h-7.52v24.68h-21.59V35.17ZM354.67,70.99c5.78,0,8.29-4.37,8.29-9.17s-2.73-9.39-8.51-9.39h-15.6v18.57h15.81Z"/>
  <path class="cls-1" d="M417.32,35.17h59.55v18.02h-38.28v11.14h36.1v17.58h-36.1v11.47h39.81v18.24h-61.07V35.17Z"/>
  <path class="cls-1" d="M526.56,52.97h-22.25v-17.8h66.09v17.8h-22.47v58.65h-21.38v-58.65Z"/>
  <path class="cls-1" d="M601.28,64.33h323.61v17.58h-323.61v-17.58Z"/>
  <path class="cls-1" d="M35.12,144.39h21.59v29.16h27.48v-29.16h21.38v76.45h-21.38v-28.83h-27.48v28.83h-21.59v-76.45Z"/>
  <path class="cls-1" d="M166.74,144.39h21.81l34.03,76.45h-23.12l-4.91-12.45h-34.14l-5.02,12.45h-22.9l34.24-76.45ZM187.24,190.36l-9.71-24.57-9.92,24.57h19.63Z"/>
  <path class="cls-1" d="M249.43,144.39h18.32l32.17,41.94-.55-15.62v-26.32h21.7v76.45h-18.32l-31.85-41.17.33,16.6v24.57h-21.81v-76.45Z"/>
  <path class="cls-1" d="M356.82,144.39h32.72c26.94,0,39.81,16.71,39.81,37.68s-12.43,38.77-39.81,38.77h-32.72v-76.45ZM389.54,202.6c13.63,0,18.43-10.27,18.43-20.75s-5.23-19.55-18.43-19.55h-11.34v40.3h11.34Z"/>
  <path class="cls-1" d="M454.44,209.26l11.89-13.65c7.53,7.32,15.81,8.74,22.36,8.74,7.09,0,11.89-2.62,11.89-6.77,0-3.82-4.25-6.33-12.65-6.99-16.69-1.53-31.08-5.9-31.08-24.79,0-16.16,15.81-23.15,31.95-23.15,11.34,0,20.28,2.4,28.46,9.06l-10.69,13.65c-5.13-3.93-11.12-5.35-17.78-5.35-5.24,0-10.36,1.75-10.36,5.79,0,5.24,5.13,5.9,12.65,6.77,15.16,1.64,30.86,7.65,30.86,25.34s-16.25,24.79-33.37,24.79c-13.85,0-23.45-2.18-34.13-13.43Z"/>
  <path class="cls-1" d="M552.42,144.39h21.59v29.16h27.48v-29.16h21.38v76.45h-21.38v-28.83h-27.48v28.83h-21.59v-76.45Z"/>
  <path class="cls-1" d="M684.04,144.39h21.81l34.03,76.45h-23.12l-4.91-12.45h-34.13l-5.02,12.45h-22.9l34.24-76.45ZM704.54,190.36l-9.71-24.57-9.92,24.57h19.63Z"/>
  <path class="cls-1" d="M766.73,144.39h21.59v25.23l20.07-25.23h25.85v1.2l-31.08,36.26,33.59,37.68v1.31h-26.61l-21.81-25.45v25.45h-21.59v-76.45Z"/>
  <path class="cls-1" d="M863.81,144.39h59.55v18.02h-38.28v11.14h36.1v17.58h-36.1v11.47h39.81v18.24h-61.07v-76.45Z"/>
</svg>